<?xml version="1.0" encoding="iso-8859-1"?>
<!-- Uploaded to: SVG Repo, www.svgrepo.com, Generator: SVG Repo Mixer Tools -->
<svg fill="#000000" height="800px" width="800px" version="1.1" id="Layer_1" xmlns="http://www.w3.org/2000/svg" xmlns:xlink="http://www.w3.org/1999/xlink" 
	 viewBox="0 0 359 359" xml:space="preserve">
<g>
	<g>
		<g>
			<path d="M275.5,0h-192C68.336,0,56,12.336,56,27.5c0,8.184,0,295.71,0,304c0,15.164,12.336,27.5,27.5,27.5h192
				c15.164,0,27.5-12.336,27.5-27.5c0-7.59,0-295.74,0-304C303,12.336,290.664,0,275.5,0z M288,331.5c0,6.893-5.607,12.5-12.5,12.5
				h-192c-6.893,0-12.5-5.607-12.5-12.5v-50.348h217V331.5z M288,266.152H71V83.162h217V266.152z M288,68.162H71V27.5
				C71,20.607,76.607,15,83.5,15h192c6.893,0,12.5,5.607,12.5,12.5V68.162z"/>
			<path d="M112.93,186.764l48.653,50.572c9.781,10.166,26.044,10.175,35.833,0l48.654-50.572c0.103-0.107,0.202-0.216,0.297-0.328
				c25.741-27.436,6.091-72.29-31.242-72.397c-14.849-0.015-27.832,7.374-35.625,18.713c-7.995-11.632-21.095-18.728-35.626-18.713
				c-37.543,0.108-56.833,45.12-31.243,72.396C112.727,186.547,112.827,186.657,112.93,186.764z M143.917,129.039
				c0.027,0,0.055,0,0.082,0c15.478,0,28.001,12.524,28.001,28c0,4.142,3.358,7.5,7.5,7.5c4.142,0,7.5-3.358,7.5-7.5
				c0-15.478,12.524-28,28-28c0.027,0,0.055,0,0.082,0c14.733,0.042,26.972,11.569,27.864,26.242v-0.001
				c0.48,7.902-2.259,15.394-7.711,21.097c-0.083,0.087-0.164,0.175-0.242,0.265l-48.386,50.294c-3.878,4.031-10.323,4.045-14.214,0
				l-48.386-50.293c-0.078-0.09-0.159-0.179-0.242-0.266C106.799,158.632,119.404,129.109,143.917,129.039z"/>
			<path d="M204.5,32h-50c-4.142,0-7.5,3.358-7.5,7.5c0,4.142,3.358,7.5,7.5,7.5h50c4.142,0,7.5-3.358,7.5-7.5
				C212,35.358,208.642,32,204.5,32z"/>
			<circle cx="241.5" cy="39.5" r="9"/>
			<path d="M155,336h49c4.142,0,7.5-3.358,7.5-7.5v-32c0-4.142-3.358-7.5-7.5-7.5h-49c-4.142,0-7.5,3.358-7.5,7.5v32
				C147.5,332.642,150.858,336,155,336z M162.5,304h34v17h-34V304z"/>
		</g>
	</g>
</g>
</svg>